<svg xmlns="http://www.w3.org/2000/svg" viewBox="0 0 96 96" role="img" aria-labelledby="title desc">
  <title id="title">Bachelor degree icon</title>
  <desc id="desc">Certificate with graduation cap and ribbon badge.</desc>
  <rect width="96" height="96" rx="18" fill="#f8fafc"/>
  <path d="M18 30.5h60v42H18z" fill="#07111f" stroke="#07111f" stroke-width="4" stroke-linejoin="round"/>
  <path d="M24 38h48M31 49h34M35 58h26" stroke="#f8fafc" stroke-width="5" stroke-linecap="round"/>
  <path d="M48 12 24 23l24 11 24-11-24-11Z" fill="#07111f"/>
  <path d="M36 28v8c0 4.5 5.4 8 12 8s12-3.5 12-8v-8" fill="none" stroke="#07111f" stroke-width="5" stroke-linecap="round"/>
  <path d="M72 23v13" stroke="#07111f" stroke-width="5" stroke-linecap="round"/>
  <circle cx="72" cy="39" r="4" fill="#07111f"/>
  <circle cx="70" cy="62" r="14" fill="#f8fafc" stroke="#07111f" stroke-width="5"/>
  <path d="m62 74-4 14 12-7 12 7-4-14" fill="#07111f"/>
</svg>
