<svg xmlns="http://www.w3.org/2000/svg" viewBox="0 0 96 96" role="img" aria-labelledby="title desc">
  <title id="title">Master degree icon</title>
  <desc id="desc">Master degree scroll with graduation cap and academic ribbon.</desc>
  <rect width="96" height="96" rx="18" fill="#f8fafc"/>
  <path d="M18 28h52a8 8 0 0 1 8 8v38H18z" fill="#07111f" stroke="#07111f" stroke-width="4" stroke-linejoin="round"/>
  <path d="M28 42h28M28 53h22M28 64h30" stroke="#f8fafc" stroke-width="5" stroke-linecap="round"/>
  <path d="M61 23c0-5 4-9 9-9s9 4 9 9v46" fill="none" stroke="#07111f" stroke-width="5" stroke-linecap="round"/>
  <path d="M70 28h11" stroke="#07111f" stroke-width="5" stroke-linecap="round"/>
  <path d="M49 10 25 21l24 11 24-11-24-11Z" fill="#07111f"/>
  <path d="M37 27v6c0 4.2 5.4 7.5 12 7.5S61 37.2 61 33v-6" fill="none" stroke="#07111f" stroke-width="5" stroke-linecap="round"/>
  <circle cx="70" cy="65" r="12" fill="#f8fafc" stroke="#07111f" stroke-width="5"/>
  <path d="m63 75-4 13 11-6 11 6-4-13" fill="#07111f"/>
</svg>
