<svg xmlns="http://www.w3.org/2000/svg" viewBox="0 0 960 540" role="img" aria-label="PulseTrade real-time dashboard preview">
  <defs>
    <linearGradient id="pulseBg" x1="0" y1="0" x2="960" y2="540" gradientUnits="userSpaceOnUse">
      <stop stop-color="#f8fafc"/>
      <stop offset="0.55" stop-color="#eef6f8"/>
      <stop offset="1" stop-color="#f5f7fb"/>
    </linearGradient>
  </defs>
  <rect width="960" height="540" fill="url(#pulseBg)"/>
  <g opacity=".5">
    <path d="M0 90h960M0 180h960M0 270h960M0 360h960M0 450h960M120 0v540M240 0v540M360 0v540M480 0v540M600 0v540M720 0v540M840 0v540" stroke="#cbd5e1" stroke-width="1"/>
  </g>
  <rect x="70" y="56" width="820" height="428" rx="18" fill="#ffffff" stroke="#d8dee8" stroke-width="2"/>
  <rect x="98" y="88" width="360" height="46" rx="8" fill="#111827"/>
  <text x="120" y="119" fill="#ffffff" font-family="Inter, Arial, sans-serif" font-size="23" font-weight="800">PulseTrade Dashboard</text>
  <rect x="704" y="90" width="112" height="34" rx="8" fill="#e6f8f0" stroke="#0f9f6e" stroke-width="2"/>
  <circle cx="728" cy="107" r="6" fill="#0f9f6e"/>
  <text x="744" y="114" fill="#0f9f6e" font-family="Inter, Arial, sans-serif" font-size="14" font-weight="800">Live feed</text>
  <g transform="translate(98 166)">
    <rect width="200" height="104" rx="8" fill="#f8fafc" stroke="#d8dee8"/>
    <text x="20" y="32" fill="#64748b" font-family="Inter, Arial, sans-serif" font-size="14" font-weight="700">Portfolio</text>
    <text x="20" y="70" fill="#111827" font-family="Inter, Arial, sans-serif" font-size="28" font-weight="800">£8.99k</text>
    <path d="M132 78l18-18 20 10 18-34" fill="none" stroke="#0f9f6e" stroke-width="5" stroke-linecap="round"/>
  </g>
  <g transform="translate(322 166)">
    <rect width="200" height="104" rx="8" fill="#f8fafc" stroke="#d8dee8"/>
    <text x="20" y="32" fill="#64748b" font-family="Inter, Arial, sans-serif" font-size="14" font-weight="700">Average move</text>
    <text x="20" y="70" fill="#0f9f6e" font-family="Inter, Arial, sans-serif" font-size="28" font-weight="800">+1.42%</text>
  </g>
  <g transform="translate(546 166)">
    <rect width="246" height="104" rx="8" fill="#f8fafc" stroke="#d8dee8"/>
    <text x="20" y="32" fill="#64748b" font-family="Inter, Arial, sans-serif" font-size="14" font-weight="700">Typed market events</text>
    <text x="20" y="70" fill="#0891b2" font-family="Inter, Arial, sans-serif" font-size="28" font-weight="800">WebSocket UI</text>
  </g>
  <g transform="translate(98 304)">
    <rect width="494" height="134" rx="8" fill="#f8fafc" stroke="#d8dee8"/>
    <path d="M30 98C80 74 104 96 144 62c42-36 72 20 116-10 48-34 76-72 126-42 38 23 62 38 108 10" fill="none" stroke="#0891b2" stroke-width="6" stroke-linecap="round" stroke-linejoin="round"/>
    <path d="M30 98C80 74 104 96 144 62c42-36 72 20 116-10 48-34 76-72 126-42 38 23 62 38 108 10L494 134H0V134Z" fill="#0891b2" opacity=".1"/>
  </g>
  <g transform="translate(626 304)">
    <rect width="194" height="134" rx="8" fill="#f8fafc" stroke="#d8dee8"/>
    <rect x="20" y="26" width="112" height="18" rx="6" fill="#0f9f6e" opacity=".25"/>
    <rect x="20" y="56" width="142" height="18" rx="6" fill="#0f9f6e" opacity=".35"/>
    <rect x="20" y="86" width="86" height="18" rx="6" fill="#d94848" opacity=".28"/>
  </g>
</svg>
